<svg id="Layer_1" data-name="Layer 1" xmlns="http://www.w3.org/2000/svg" viewBox="0 0 172.52 201.29" width="48" height="48">
  <defs>
    <style>
      .cls-1 {
        fill: #0097ce;
        stroke: #fefefe;
        stroke-miterlimit: 10;
        stroke-width: 4px;
      }
    </style>
  </defs>
  <title>dexyfolioLogoWhite</title>
  <path class="cls-1" d="M561.55,493.9V416.64c0-5.05,0-5.07,4.94-5.07,23,0,46,0,69,0,44.84.08,83.51,30.93,91.93,74.95,5.34,27.94,3.13,55.42-13.34,80-13.56,20.26-32.11,33.79-56,39.3a127.39,127.39,0,0,1-23.72,2.77c-11.86.46-23.75,0-35.63.2-3.87.08-5.12-1.23-4.79-5a69.75,69.75,0,0,0,0-9.37c-.12-2.75,1-3.71,3.74-3.69,12.25.1,24.51,0,36.76,0,36.13,0,66.9-22.88,74.62-58.15,6.56-30,2.8-58.68-20.69-81.59-13.9-13.57-30.75-20.89-50.19-21.32-18.12-.41-36.26,0-54.38-.16-3.29,0-4.29,1-4.28,4.28q.14,60.19,0,120.39c0,2.29,0,4.24,3.21,4.2,18.75-.19,37.52.26,56.24-.57,22.25-1,39.63-20.1,39.75-42.47,0-9.1.41-18.17-3.32-26.9a43.56,43.56,0,0,0-39.41-26.41c-6.63,0-13.26.14-19.88-.08-3.22-.11-4,1.11-4,4.13.09,24.76,0,49.51,0,74.27,0,5.36,0,5.37-5.33,5.37l-9.34,0c-3.79,0-3.9-1.27-3.87-4.75.13-19.75.06-39.51.06-59.26,0-11.25.11-22.51,0-33.76,0-3.23.92-4.41,4.25-4.37,13,.15,26-.13,39,.1,33.3.58,60,28.07,60.24,61.44.08,12.34-.39,24.45-5.79,35.92a62.17,62.17,0,0,1-56.91,35.32c-18.87-.34-37.75.08-56.63.13-4.12,0-8.25-.32-12.36-.18-3.16.12-4.07-1.12-4-4.16.12-14.13,0-28.26,0-42.38Z" transform="translate(-559.5 -409.55)"/>
</svg>
